<svg xmlns="http://www.w3.org/2000/svg" width="122" height="95.044" viewBox="140 52 122 95.044"><g data-name="Group 1"><path d="M146.62 68.97h18.709V52h6.545v43.374h-6.545V75.118h-18.71v20.256h-6.544V52h6.544v16.97Z" fill-rule="evenodd" data-name="Path 1"/><path d="M179.772 89.525c0-6.179 2.211-11.432 6.632-15.767 4.422-4.334 9.812-6.501 16.164-6.501 6.383 0 11.798 2.18 16.25 6.545 4.39 4.365 6.589 9.724 6.589 16.077 0 6.414-2.21 11.785-6.632 16.12-4.452 4.303-9.91 6.458-16.38 6.458-6.415 0-11.787-2.199-16.121-6.589-4.34-4.34-6.502-9.786-6.502-16.343Zm10.097.173c0 4.279 1.143 7.657 3.428 10.147 2.341 2.521 5.433 3.775 9.265 3.775 3.862 0 6.954-1.242 9.264-3.732 2.31-2.49 3.472-5.812 3.472-9.972 0-4.16-1.155-7.483-3.472-9.973-2.34-2.515-5.433-3.775-9.264-3.775-3.776 0-6.837 1.26-9.178 3.775-2.341 2.521-3.515 5.775-3.515 9.755Z" fill-rule="evenodd" data-name="Path 2"/><path d="m209.2 52.118 10.27 22.392 11.078-22.305 11.159 22.305 10.147-22.392H262l-20.541 42.163-10.917-25.254-11.034 25.254-20.492-42.163H209.2Z" fill-rule="evenodd" data-name="Path 3"/><path d="M171.874 110.041v37.003h-6.557v-37.003H140v-5.899h25.317V94.114h6.557v10.028h4.676v5.9h-4.676Z" fill-rule="evenodd" data-name="Path 4"/><path d="M179.953 117.623c0-3.95 1.415-7.315 4.24-10.084 2.826-2.77 6.272-4.16 10.34-4.16 4.08 0 7.544 1.396 10.395 4.184 2.806 2.789 4.216 6.216 4.216 10.284 0 4.104-1.416 7.538-4.241 10.308-2.844 2.75-6.34 4.129-10.476 4.129-4.098 0-7.538-1.403-10.308-4.216-2.782-2.764-4.166-6.247-4.166-10.445Zm6.458.112c0 2.732.732 4.9 2.192 6.489 1.496 1.608 3.47 2.415 5.93 2.415 2.471 0 4.446-.794 5.93-2.39 1.478-1.59 2.217-3.72 2.217-6.378 0-2.657-.74-4.787-2.217-6.377-1.497-1.608-3.471-2.415-5.93-2.415-2.416 0-4.372.807-5.875 2.415-1.496 1.62-2.247 3.695-2.247 6.24Z" fill-rule="evenodd" data-name="Path 5"/></g></svg>